<svg width="56" height="26" viewBox="0 0 56 26" fill="none" xmlns="http://www.w3.org/2000/svg">
<path d="M9.06445 3.61719H11.375V16.7441C11.375 20.2734 9.29297 22.2539 6.09375 22.2539C3.04688 22.2539 0.837891 20.502 0.837891 17.6582H3.09766C3.09766 19.207 4.36719 20.2227 6.09375 20.2227C7.99805 20.2227 9.06445 19.0293 9.06445 16.7441V3.61719ZM15.4375 22V3.61719H21.6836C26 3.61719 27.9551 6.18164 27.9551 9.45703C27.9551 12.707 26 15.3223 21.709 15.3223H17.7227V22H15.4375ZM17.7227 13.291H21.6074C24.5273 13.291 25.6953 11.6406 25.6953 9.45703C25.6953 7.24805 24.5273 5.64844 21.582 5.64844H17.7227V13.291Z" fill="#2A2A37"/>
<path d="M39.0002 10.4999L44.0002 15.4999L49.0002 10.4999" stroke="#2A2A37" stroke-width="1.8" stroke-linecap="round" stroke-linejoin="round"/>
</svg>
